<svg height="27.221" viewBox="0 0 43.1 27.221" width="43.1" xmlns="http://www.w3.org/2000/svg">
    <g data-name="Accept Payment Bank Card Money Credit" id="Accept_Payment_Bank_Card_Money_Credit"
        transform="translate(-3 -5.779)">
        <g data-name="Group 974" id="Group_974">
            <path d="M40.429,10H8.671A5.677,5.677,0,0,0,3,15.671V31.55a5.677,5.677,0,0,0,5.671,5.671H40.429A5.677,5.677,0,0,0,46.1,31.55V15.671A5.677,5.677,0,0,0,40.429,10ZM8.671,12.268H40.429a3.407,3.407,0,0,1,3.4,3.4v1.134H5.268V15.671A3.407,3.407,0,0,1,8.671,12.268ZM40.429,34.953H8.671a3.407,3.407,0,0,1-3.4-3.4V19.074H43.832V31.55A3.407,3.407,0,0,1,40.429,34.953Z" data-name="Path 1785"
                fill="#f7f7fd"
                id="Path_1785" transform="translate(0 -4.221)" />
            <path d="M8.368,18H6.789a.789.789,0,0,0,0,1.579H8.368a.789.789,0,0,0,0-1.579Z" data-name="Path 1786"
                fill="#f7f7fd"
                id="Path_1786" transform="translate(3.737 7.412)" />
            <path d="M12.368,18H10.789a.789.789,0,0,0,0,1.579h1.579a.789.789,0,0,0,0-1.579Z" data-name="Path 1787"
                fill="#f7f7fd"
                id="Path_1787" transform="translate(8.769 7.412)" />
            <path d="M16.368,18H14.789a.789.789,0,0,0,0,1.579h1.579a.789.789,0,0,0,0-1.579Z" data-name="Path 1789"
                fill="#f7f7fd"
                id="Path_1789" transform="translate(13.802 7.412)" />
        </g>
    </g>
</svg>
