<svg height="35.105" viewBox="0 0 35.105 35.105" width="35.105" xmlns="http://www.w3.org/2000/svg">
    <g id="settings" transform="translate(1 1)">
        <ellipse cx="4.5" cy="4" data-name="Ellipse 36" fill="none" id="Ellipse_36" rx="4.5"
            ry="4" stroke="#ccc" stroke-linecap="round" stroke-linejoin="round"
            stroke-width="2" transform="translate(12.007 12.267)" />
        <path d="M28.688,22.067a2.483,2.483,0,0,0,.5,2.739l.09.09a3.011,3.011,0,1,1-4.259,4.259l-.09-.09a2.5,2.5,0,0,0-4.243,1.776V31.1a3.01,3.01,0,0,1-6.019,0V30.96a2.483,2.483,0,0,0-1.625-2.272,2.483,2.483,0,0,0-2.739.5l-.09.09a3.011,3.011,0,1,1-4.259-4.259l.09-.09a2.5,2.5,0,0,0-1.776-4.243H4.01a3.01,3.01,0,0,1,0-6.019h.135a2.483,2.483,0,0,0,2.272-1.625,2.483,2.483,0,0,0-.5-2.739l-.09-.09a3.011,3.011,0,1,1,4.259-4.259l.09.09a2.483,2.483,0,0,0,2.739.5h.12a2.483,2.483,0,0,0,1.5-2.272V4.01a3.01,3.01,0,1,1,6.019,0v.135a2.5,2.5,0,0,0,4.243,1.776l.09-.09a3.011,3.011,0,1,1,4.259,4.259l-.09.09a2.483,2.483,0,0,0-.5,2.739v.12a2.483,2.483,0,0,0,2.272,1.5H31.1a3.01,3.01,0,1,1,0,6.019H30.96A2.483,2.483,0,0,0,28.688,22.067Z" data-name="Path 66"
            fill="none"
            id="Path_66" stroke="#ccc" stroke-linecap="round" stroke-linejoin="round"
            stroke-width="2" transform="translate(-1 -1)" />
    </g>
</svg>
