<svg data-name="Group 1981" height="65.8" id="Group_1981" viewBox="0 0 65.8 65.8"
    width="65.8" xmlns="http://www.w3.org/2000/svg">
    <g data-name="Group 1975" id="Group_1975" transform="translate(18.3 6.21)">
        <g data-name="Group 1974" id="Group_1974" transform="translate(0 0)">
            <path d="M520.551,241.245l-14.6,14.159h7.584v15.434h14.032V255.4h7.584Zm-7.981,11.5,7.981-7.74,7.981,7.74h-3.707v15.434h-8.549V252.745Z" data-name="Path 2094"
                fill="#505261"
                id="Path_2094" transform="translate(-505.951 -241.245)" />
        </g>
    </g>
    <g data-name="Group 1976" id="Group_1976" transform="translate(0 46.608)">
        <path d="M431.2,549.518H384.6a9.6,9.6,0,0,1,0-19.192H431.2a9.6,9.6,0,1,1,0,19.192ZM384.6,533.068a6.854,6.854,0,0,0,0,13.708H431.2a6.854,6.854,0,1,0,0-13.708Z" data-name="Path 2095"
            fill="#505261"
            id="Path_2095" transform="translate(-375 -530.326)" />
    </g>
    <g data-name="Group 1980" id="Group_1980" transform="translate(0.028)">
        <g data-name="Group 1977" id="Group_1977" transform="translate(8.286)">
            <path d="M480.985,204.538a6.348,6.348,0,0,0-5.712-4.989h-32.4a6.346,6.346,0,0,0-5.711,4.988l-2.677-.588c.879-4,4.564-7.142,8.388-7.142h32.4c3.823,0,7.509,3.137,8.39,7.141Z" data-name="Path 2096"
                fill="#505261"
                id="Path_2096" transform="translate(-434.488 -196.808)" />
        </g>
        <g data-name="Group 1978" id="Group_1978" transform="translate(54.783 7.141)">
            <rect data-name="Rectangle 131" fill="#505261" height="38.583" id="Rectangle_131"
                transform="translate(0 0.588) rotate(-12.392)" width="2.741" />
        </g>
        <g data-name="Group 1979" id="Group_1979" transform="translate(0 7.142)">
            <rect data-name="Rectangle 132" fill="#505261" height="2.741" id="Rectangle_132"
                transform="translate(0 37.682) rotate(-77.592)" width="38.583" />
        </g>
    </g>
</svg>
